<?xml version="1.0" encoding="UTF-8"?>
<!DOCTYPE svg PUBLIC "-//W3C//DTD SVG 1.1//EN" "http://www.w3.org/Graphics/SVG/1.1/DTD/svg11.dtd">
<svg xmlns="http://www.w3.org/2000/svg" version="1.1" width="512px" height="512px" style="shape-rendering:geometricPrecision; text-rendering:geometricPrecision; image-rendering:optimizeQuality; fill-rule:evenodd; clip-rule:evenodd" xmlns:xlink="http://www.w3.org/1999/xlink">
<g><path style="opacity:0.994" fill="#f9d266" d="M 377.5,368.5 C 367.852,367.232 360.019,370.566 354,378.5C 343.094,399.201 326.261,406.701 303.5,401C 299.167,400.333 294.833,400.333 290.5,401C 284.035,404.4 277.702,408.067 271.5,412C 261.616,416.153 251.616,416.487 241.5,413C 234.631,408.733 227.631,404.733 220.5,401C 211.436,400.457 202.436,400.957 193.5,402.5C 184.65,402.717 176.65,400.217 169.5,395C 163.261,387.85 157.261,380.517 151.5,373C 146.093,369.315 140.093,367.815 133.5,368.5C 112.879,362.328 102.046,348.328 101,326.5C 100,324.5 99,322.5 98,320.5C 90.8504,314.261 83.5171,308.261 76,302.5C 70.1787,295.018 67.3454,286.518 67.5,277C 68.2687,269.449 69.102,261.949 70,254.5C 69.6667,252.833 69.3333,251.167 69,249.5C 64.5676,242.737 60.5676,235.737 57,228.5C 52.5299,211.713 56.1966,197.047 68,184.5C 68.8221,182.212 69.4888,179.878 70,177.5C 69.5848,169.654 68.7515,161.821 67.5,154C 67.9597,136.741 75.9597,124.408 91.5,117C 95.8182,113.685 98.9848,109.519 101,104.5C 103.5,78 118,63.5 144.5,61C 153.058,56.7756 159.224,50.2756 163,41.5C 171.136,32.0085 181.47,27.3418 194,27.5C 201.862,28.4292 209.695,29.2625 217.5,30C 224.393,28.2214 230.393,24.8881 235.5,20C 254.276,11.8331 271.276,14.4997 286.5,28C 288.788,28.8221 291.122,29.4888 293.5,30C 301.346,29.5848 309.179,28.7515 317,27.5C 334.259,27.9597 346.592,35.9597 354,51.5C 357.315,55.8182 361.481,58.9848 366.5,61C 393,63.5 407.5,78 410,104.5C 411,106.5 412,108.5 413,110.5C 420.333,116.5 427.667,122.5 435,128.5C 440.821,135.982 443.655,144.482 443.5,154C 442.731,161.551 441.898,169.051 441,176.5C 441.333,178.167 441.667,179.833 442,181.5C 446.432,188.263 450.432,195.263 454,202.5C 458.47,219.287 454.803,233.953 443,246.5C 442.178,248.788 441.511,251.122 441,253.5C 441.415,261.346 442.248,269.179 443.5,277C 443.455,286.469 440.621,294.969 435,302.5C 427.85,308.739 420.517,314.739 413,320.5C 412,322.5 411,324.5 410,326.5C 408.954,348.328 398.121,362.328 377.5,368.5 Z"/></g>
<g><path style="opacity:1" fill="#fefefe" d="M 239.5,64.5 C 290.929,65.1265 330.762,86.7932 359,129.5C 391.667,186.833 391.667,244.167 359,301.5C 331.029,343.907 291.529,365.574 240.5,366.5C 191.941,363.809 154.441,342.142 128,301.5C 95.3519,244.137 95.3519,186.804 128,129.5C 154.168,89.2035 191.335,67.5368 239.5,64.5 Z"/></g>
<g><path style="opacity:1" fill="#f2f1f0" d="M 239.5,64.5 C 297.132,60.1004 343.632,80.767 379,126.5C 411.783,175.149 416.449,226.483 393,280.5C 363.5,337.112 316.666,366.112 252.5,367.5C 248.319,367.499 244.319,367.166 240.5,366.5C 291.529,365.574 331.029,343.907 359,301.5C 391.667,244.167 391.667,186.833 359,129.5C 330.762,86.7932 290.929,65.1265 239.5,64.5 Z"/></g>
<g><path style="opacity:1" fill="#569b2e" d="M 254.5,96.5 C 257.056,97.5434 259.223,99.2101 261,101.5C 285.686,133.927 318.519,150.594 359.5,151.5C 356.946,231.303 322.279,292.637 255.5,335.5C 188.726,292.649 154.06,231.315 151.5,151.5C 194.98,149.962 229.314,131.629 254.5,96.5 Z"/></g>
<g><path style="opacity:1" fill="#fbe696" d="M 294.5,167.5 C 300.756,172.085 306.422,177.419 311.5,183.5C 285.014,209.486 258.68,235.653 232.5,262C 231.833,262.667 231.167,262.667 230.5,262C 220.667,252.167 210.833,242.333 201,232.5C 200.333,231.833 200.333,231.167 201,230.5C 206.015,225.652 210.848,220.652 215.5,215.5C 221.176,221.026 226.843,226.193 232.5,231C 253.753,210.249 274.42,189.082 294.5,167.5 Z"/></g>
<g><path style="opacity:0.989" fill="#f0ae42" d="M 377.5,368.5 C 405.776,400.113 434.443,431.446 463.5,462.5C 461.926,463.631 460.259,463.798 458.5,463C 423.514,455.436 388.514,447.936 353.5,440.5C 351.295,441.885 349.795,443.885 349,446.5C 342.366,463.098 335.199,479.432 327.5,495.5C 303.5,469.5 279.5,443.5 255.5,417.5C 231.5,443.5 207.5,469.5 183.5,495.5C 175.801,479.432 168.634,463.098 162,446.5C 161.205,443.885 159.705,441.885 157.5,440.5C 121.653,448.103 85.8193,455.769 50,463.5C 49.1667,463.167 48.3333,462.833 47.5,462.5C 76.5573,431.446 105.224,400.113 133.5,368.5C 140.093,367.815 146.093,369.315 151.5,373C 157.261,380.517 163.261,387.85 169.5,395C 176.65,400.217 184.65,402.717 193.5,402.5C 202.436,400.957 211.436,400.457 220.5,401C 227.631,404.733 234.631,408.733 241.5,413C 251.616,416.487 261.616,416.153 271.5,412C 277.702,408.067 284.035,404.4 290.5,401C 294.833,400.333 299.167,400.333 303.5,401C 326.261,406.701 343.094,399.201 354,378.5C 360.019,370.566 367.852,367.232 377.5,368.5 Z"/></g>
</svg>
